# xmcd
#
# Track frame offsets: 
#        150
#        25672
#        46007
#        62950
#        83725
#        97312
#        112220
#        132022
#        150752
#        169307
#
# Disc length: 2503 seconds
#
# Revision: 6
# Processed by: cddbd v1.5.2PL0 Copyright (c) Steve Scherf et al.
# Submitted via: ExactAudioCopyFreeDBPlugin 1.0
#
DISCID=7a09c50a
DTITLE=John Lee Hooker - The Healer (MFSL UDCD 567)
DYEAR=1989
DGENRE=Blues
TTITLE0=The Healer (With Santana)
TTITLE1=I'm in the Mood (With Bonnie Raitt)
TTITLE2=Baby Lee (With Robert Cray)
TTITLE3=Cuttin Out (With Canned Heat)
TTITLE4=Think Twice Before You Go (With Los Lobos)
TTITLE5=Sally Mae (With George Thorogood)
TTITLE6=That's Alright (With Charlie Musselwhite)
TTITLE7=Rockin Chair
TTITLE8=My Dream
TTITLE9=No Substitute
EXTD=
EXTT0=
EXTT1=
EXTT2=
EXTT3=
EXTT4=
EXTT5=
EXTT6=
EXTT7=
EXTT8=
EXTT9=
PLAYORDER=
